<?xml version="1.0" standalone="no"?><!DOCTYPE svg PUBLIC "-//W3C//DTD SVG 1.1//EN" "http://www.w3.org/Graphics/SVG/1.1/DTD/svg11.dtd"><svg t="1734878703741" class="icon" viewBox="0 0 1025 1024" version="1.1" xmlns="http://www.w3.org/2000/svg" p-id="5062" xmlns:xlink="http://www.w3.org/1999/xlink" width="200.1953125" height="200"><path d="M903.168 153.088c-47.104-47.616-122.88-47.616-169.984 0L432.64 456.192l169.984 171.52 300.544-303.616c47.104-47.104 47.104-123.904 0-171.008z m-368.128 307.2l-20.48-20.48 253.952-256.512c5.632-5.632 14.848-5.632 20.48 0s5.632 14.848 0 20.48l-253.952 256.512z m41.984 42.496l-20.48-20.48 275.456-278.016c5.632-5.632 14.848-5.632 20.48 0s5.632 14.848 0 20.48l-275.456 278.016z m42.496 42.496l-20.48-20.48 253.952-256.512c5.632-5.632 14.848-5.632 19.968 0 5.632 5.632 5.632 14.848 0 20.48L619.52 545.28zM377.856 765.952l-15.36-15.36 141.824-142.848-55.808-56.32L307.2 693.76l-15.36-15.36-33.28 17.408-111.616 182.272 33.28 33.792 178.688-111.616 18.944-34.304zM275.456 112.128c-16.384 0-31.744 2.048-47.104 6.144 1.536 1.536 3.072 2.56 4.608 3.584l68.608 69.12c34.816 35.328 34.816 92.16 0 127.488s-91.648 35.328-126.464 0L106.496 249.856c-3.584-3.584-6.656-7.68-9.216-11.776-7.168 20.48-11.776 42.496-11.776 65.536 0 105.984 84.992 191.488 189.952 191.488s189.952-86.016 189.952-191.488c-0.512-105.984-85.504-191.488-189.952-191.488zM855.552 870.4c40.96-41.472 40.96-109.056 0-151.04l-151.552-153.088-149.504 150.528 151.552 153.088c41.472 41.984 108.032 41.984 149.504 0.512z m-101.376-102.4c16.896-17.408 44.544-17.408 61.952 0 16.896 17.408 16.896 45.056 0 62.464-16.896 17.408-44.544 17.408-61.952 0-16.896-17.408-16.896-45.056 0-62.464z" p-id="5063" fill="#1296db"></path></svg>