<?xml version="1.0" standalone="no"?><!DOCTYPE svg PUBLIC "-//W3C//DTD SVG 1.1//EN" "http://www.w3.org/Graphics/SVG/1.1/DTD/svg11.dtd"><svg t="1735049064535" class="icon" viewBox="0 0 1024 1024" version="1.1" xmlns="http://www.w3.org/2000/svg" p-id="10888" xmlns:xlink="http://www.w3.org/1999/xlink" width="200" height="200"><path d="M511.773257 535.025371 380.906057 535.025371c-11.776 0-21.335771 8.426057-21.335771 19.082971s9.559771 19.397486 21.335771 19.397486l130.8672 0c11.871086 0 21.525943-8.842971 21.525943-19.397486S523.644343 535.025371 511.773257 535.025371z" fill="#FFB400" p-id="10889"></path><path d="M380.906057 436.355657l171.381029 0c11.966171 0 21.6064-8.630857 21.6064-19.2 0-10.554514-9.742629-19.185371-21.6064-19.185371L380.906057 397.970286c-11.776 0-21.321143 8.528457-21.335771 19.185371C359.570286 427.8272 369.130057 436.355657 380.906057 436.355657z" fill="#FFB400" p-id="10890"></path><path d="M552.287086 465.985829 380.906057 465.985829c-11.776 0-21.321143 8.528457-21.335771 19.2 0 10.656914 9.559771 19.185371 21.335771 19.185371l171.381029 0c11.966171 0 21.6064-8.630857 21.6064-19.185371S564.150857 465.985829 552.287086 465.985829z" fill="#FFB400" p-id="10891"></path><path d="M510.880914 44.288c-363.395657 0-464.113371 103.241143-464.113371 466.644114 0 363.388343 100.725029 463.389257 464.113371 463.389257 363.381029 0 465.92-100.000914 465.92-463.389257C976.800914 147.529143 874.254629 44.288 510.880914 44.288zM729.2416 662.784c2.925714 7.643429 6.4 14.855314 10.349714 21.525943 11.381029 19.273143 4.834743 29.513143-0.087771 33.901714-4.256914 3.803429-9.764571 5.368686-15.945143 5.368686-22.140343 0-53.021257-20.128914-66.720914-29.9008-13.538743 2.742857-27.450514 4.139886-41.450057 4.139886-30.610286 0-60.437943-6.743771-86.805943-19.287771-21.686857 5.712457-44.726857 8.784457-68.608 8.784457-21.547886 0-42.415543-2.501486-62.208-7.182629-59.684571 45.070629-120.671086 61.301029-94.646857 17.269029 9.252571-15.645257 16.003657-31.831771 20.933486-47.586743-57.7024-35.671771-95.217371-93.44-95.217371-158.654171 0-108.331886 103.482514-196.154514 231.138743-196.154514 86.140343 0 161.287314 40.016457 201.033143 99.328 76.858514 17.415314 133.705143 77.699657 133.705143 149.211429C794.719086 589.758171 770.442971 633.614629 729.2416 662.784z" fill="#FFB400" p-id="10892"></path><path d="M679.021714 428.426971c7.840914 19.697371 12.0832 40.813714 12.0832 62.741943 0 74.927543-49.5104 140.032-122.258286 173.070629 14.8992 4.015543 30.588343 6.114743 46.5408 6.114743 14.050743 0 27.984457-1.601829 41.406171-4.783543l6.275657-1.4848 5.156571 3.898514c18.629486 14.058057 34.837943 22.184229 45.173029 25.856-5.514971-10.057143-10.130286-20.955429-13.736229-32.526629l-3.181714-10.174171 9.0624-5.602743c38.634057-23.888457 61.703314-62.017829 61.703314-101.983086C767.253943 492.602514 731.062857 448.570514 679.021714 428.426971z" fill="#FFB400" p-id="10893"></path></svg>