<?xml version="1.0" standalone="no"?><!DOCTYPE svg PUBLIC "-//W3C//DTD SVG 1.1//EN" "http://www.w3.org/Graphics/SVG/1.1/DTD/svg11.dtd"><svg t="1734866795618" class="icon" viewBox="0 0 1024 1024" version="1.1" xmlns="http://www.w3.org/2000/svg" p-id="2495" xmlns:xlink="http://www.w3.org/1999/xlink" width="200" height="200"><path d="M512 512m-512 0a512 512 0 1 0 1024 0 512 512 0 1 0-1024 0Z" fill="#FF6669" p-id="2496"></path><path d="M367.676681 250.311111a117.153185 117.153185 0 0 0-82.056533 33.496178c-0.295822 0.257896-0.59923 0.515793-0.879881 0.811615A116.387081 116.387081 0 0 0 250.311111 367.267081c0 32.244622 13.160296 61.493096 34.413985 82.663349s50.5856 34.292622 82.951585 34.292622h101.944889a15.390341 15.390341 0 0 0 15.413097-15.352415V367.267081c0-32.237037-13.160296-61.485511-34.413986-82.655762A117.168356 117.168356 0 0 0 367.676681 250.311111z m101.937304 289.465837H367.676681c-32.350815 0-61.690311 13.12237-82.936414 34.292622C263.486578 595.254993 250.311111 624.495881 250.311111 656.732919c0 31.744 12.841719 60.63597 33.60237 81.760711 0.273067 0.303407 0.523378 0.59923 0.8192 0.887466A117.213867 117.213867 0 0 0 367.676681 773.688889a117.191111 117.191111 0 0 0 82.951586-34.292622 116.371911 116.371911 0 0 0 34.413985-82.655763V555.136948a15.397926 15.397926 0 0 0-15.428267-15.36z m84.711348-55.553896h101.952474c32.305304 0 61.652385-13.114785 82.898489-34.292622l0.060682-0.053097c21.230933-21.170252 34.39123-50.388385 34.391229-82.610252 0-32.183941-13.160296-61.417244-34.4064-82.595081l-0.060681-0.053096A117.183526 117.183526 0 0 0 656.277807 250.311111a117.229037 117.229037 0 0 0-82.966755 34.292622 116.432593 116.432593 0 0 0-34.39123 82.655763v101.603556a15.382756 15.382756 0 0 0 15.405511 15.36zM773.688889 656.732919c0-32.237037-13.160296-61.485511-34.413985-82.663349l-0.022756 0.030341a117.229037 117.229037 0 0 0-82.928829-34.315378h-101.944889c-8.502993 0-15.397926 6.872178-15.397926 15.352415v101.603556c0 32.244622 13.152711 61.493096 34.398815 82.670933a117.221452 117.221452 0 0 0 82.951585 34.285037c32.335644 0 61.690311-13.12237 82.944-34.300207l-0.030341-0.030341c21.268859-21.208178 34.444326-50.464237 34.444326-82.633007z" fill="#FFFFFF" p-id="2497"></path></svg>