<?xml version="1.0" standalone="no"?><!DOCTYPE svg PUBLIC "-//W3C//DTD SVG 1.1//EN" "http://www.w3.org/Graphics/SVG/1.1/DTD/svg11.dtd"><svg t="1734866825967" class="icon" viewBox="0 0 1024 1024" version="1.1" xmlns="http://www.w3.org/2000/svg" p-id="4372" xmlns:xlink="http://www.w3.org/1999/xlink" width="200" height="200"><path d="M642.56 946.176h-261.12c-167.936 0-303.616-136.192-303.616-303.616v-261.12c0-167.936 136.192-303.616 303.616-303.616h261.12c167.936 0 303.616 136.192 303.616 303.616v261.12c0 167.424-136.192 303.616-303.616 303.616z" fill="#F2F9FF" p-id="4373"></path><path d="M264.192 367.616c-7.68 0-13.824-2.56-19.456-7.68-5.12-4.608-8.192-10.752-8.192-17.92V284.16c0-7.168 2.56-13.312 8.192-18.432 5.12-5.12 11.776-7.68 19.456-7.68h351.232c7.68 0 13.824 2.56 19.456 7.68 5.632 5.12 8.192 11.264 8.192 18.432v58.368c0 6.656-2.56 12.8-8.192 17.92-5.12 5.12-11.776 7.68-19.456 7.68H264.192z m0 142.336c-7.68 0-13.824-2.56-19.456-7.68-5.12-4.608-8.192-11.264-8.192-18.432V425.984c0-6.656 2.56-12.8 8.192-17.92 5.12-5.12 11.776-7.68 19.456-7.68h351.232c7.68 0 13.824 2.56 19.456 7.68 5.632 5.12 8.192 10.752 8.192 17.92v58.368c0 7.168-2.56 13.312-8.192 18.432-5.12 5.12-11.776 7.68-19.456 7.68H264.192z m187.392 70.656c-23.552 6.144-45.056 17.92-62.464 34.304-17.92 16.896-27.136 37.888-28.16 63.488-1.024 26.112 7.68 54.272 25.6 85.504H262.144c-12.288 0-20.48-7.68-24.064-23.552v-173.056c0-12.8 8.192-20.992 24.064-24.064l213.504 0.512c-9.728 5.632-17.92 18.432-24.064 36.864zM295.424 284.16c-7.68 0-13.824 2.56-18.944 7.68s-7.68 11.776-7.68 18.944c0 7.168 2.56 13.312 7.68 18.432s11.776 7.68 18.944 7.68c7.168 0 13.312-2.56 18.432-7.68s7.68-11.264 7.68-18.432c0-7.68-2.56-13.824-7.68-18.944-4.608-4.608-11.264-7.68-18.432-7.68z m0 143.872c-7.68 0-13.824 2.56-18.944 7.68s-7.68 11.776-7.68 18.944c0 7.168 2.56 13.312 7.68 18.432s11.776 7.68 18.944 7.68c7.168 0 13.312-2.56 18.432-7.68s7.68-11.776 7.68-18.944c0-7.168-2.56-13.312-7.68-18.432-4.608-4.608-11.264-7.68-18.432-7.68z m440.32 197.12c34.816 17.408 52.224 41.472 52.224 71.168 0 30.208-17.408 52.224-52.736 66.048H446.976c-36.864-18.944-54.784-45.568-54.784-79.872 0-34.304 11.776-55.296 35.328-62.976 23.552-7.68 40.96-10.24 51.712-7.168 1.536-30.72 13.824-49.152 35.84-54.784 27.136-2.56 46.592 2.048 59.392 13.824 36.864-33.28 73.216-43.52 108.544-29.696 36.352 13.824 53.76 41.472 52.736 83.456z m0 0" p-id="4374"></path><path d="M264.192 367.616c-7.68 0-13.824-2.56-19.456-7.68-5.12-4.608-8.192-10.752-8.192-17.92V284.16c0-7.168 2.56-13.312 8.192-18.432 5.12-5.12 11.776-7.68 19.456-7.68h351.232c7.68 0 13.824 2.56 19.456 7.68 5.632 5.12 8.192 11.264 8.192 18.432v58.368c0 6.656-2.56 12.8-8.192 17.92-5.12 5.12-11.776 7.68-19.456 7.68H264.192z m0 142.336c-7.68 0-13.824-2.56-19.456-7.68-5.12-4.608-8.192-11.264-8.192-18.432V425.984c0-6.656 2.56-12.8 8.192-17.92 5.12-5.12 11.776-7.68 19.456-7.68h351.232c7.68 0 13.824 2.56 19.456 7.68 5.632 5.12 8.192 10.752 8.192 17.92v58.368c0 7.168-2.56 13.312-8.192 18.432-5.12 5.12-11.776 7.68-19.456 7.68H264.192z m187.392 70.656c-23.552 6.144-45.056 17.92-62.464 34.304-17.92 16.896-27.136 37.888-28.16 63.488-1.024 26.112 7.68 54.272 25.6 85.504H262.144c-12.288 0-20.48-7.68-24.064-23.552v-173.056c0-12.8 8.192-20.992 24.064-24.064l213.504 0.512c-9.728 5.632-17.92 18.432-24.064 36.864zM295.424 284.16c-7.68 0-13.824 2.56-18.944 7.68s-7.68 11.776-7.68 18.944c0 7.168 2.56 13.312 7.68 18.432s11.776 7.68 18.944 7.68c7.168 0 13.312-2.56 18.432-7.68s7.68-11.264 7.68-18.432c0-7.68-2.56-13.824-7.68-18.944-4.608-4.608-11.264-7.68-18.432-7.68z m0 143.872c-7.68 0-13.824 2.56-18.944 7.68s-7.68 11.776-7.68 18.944c0 7.168 2.56 13.312 7.68 18.432s11.776 7.68 18.944 7.68c7.168 0 13.312-2.56 18.432-7.68s7.68-11.776 7.68-18.944c0-7.168-2.56-13.312-7.68-18.432-4.608-4.608-11.264-7.68-18.432-7.68z m440.32 197.12c34.816 17.408 52.224 41.472 52.224 71.168 0 30.208-17.408 52.224-52.736 66.048H446.976c-36.864-18.944-54.784-45.568-54.784-79.872 0-34.304 11.776-55.296 35.328-62.976 23.552-7.68 40.96-10.24 51.712-7.168 1.536-30.72 13.824-49.152 35.84-54.784 27.136-2.56 46.592 2.048 59.392 13.824 36.864-33.28 73.216-43.52 108.544-29.696 36.352 13.824 53.76 41.472 52.736 83.456z m0 0" fill="#376ED9" p-id="4375"></path></svg>