<?xml version="1.0" standalone="no"?><!DOCTYPE svg PUBLIC "-//W3C//DTD SVG 1.1//EN" "http://www.w3.org/Graphics/SVG/1.1/DTD/svg11.dtd"><svg t="1734873867662" class="icon" viewBox="0 0 1024 1024" version="1.1" xmlns="http://www.w3.org/2000/svg" p-id="6158" xmlns:xlink="http://www.w3.org/1999/xlink" width="200" height="200"><path d="M940.366534 330.454183C891.410359 130.549801 715.984064 0 512 0 267.219124 0 75.474104 199.904382 67.314741 436.525896c0 199.904382 130.549801 375.330677 330.454183 432.446216 57.115538 32.63745 97.912351 89.752988 118.310757 155.027888 24.478088-61.195219 61.195219-118.310757 118.310757-155.027888 228.462151-69.354582 363.091633-310.055777 305.976096-538.517929z" fill="#D62023" p-id="6159"></path><path d="M711.904382 187.665339h-130.5498v-36.717132c0-4.079681-4.079681-8.159363-8.159363-8.159362h-106.071713c-4.079681 0-8.159363 4.079681-8.159363 8.159362v36.717132H312.095618v85.673306h399.808764V187.665339zM312.095618 326.374502v346.772908h399.808764V326.374502H312.095618z m146.868525 257.01992c0 12.239044-12.239044 24.478088-32.63745 24.478088-16.318725 0-28.557769-12.239044-32.63745-24.478088V399.808765c0-12.239044 12.239044-24.478088 32.63745-24.478088 16.318725 0 32.63745 12.239044 32.63745 24.478088v183.585657z m167.266933 0c0 12.239044-12.239044 24.478088-28.557769 24.478088-16.318725 0-28.557769-12.239044-32.63745-24.478088V395.729084c0-12.239044 12.239044-24.478088 32.63745-24.478088 16.318725 0 28.557769 12.239044 28.557769 24.478088v187.665338z" fill="#FFFFFF" p-id="6160"></path></svg>