<?xml version="1.0" standalone="no"?><!DOCTYPE svg PUBLIC "-//W3C//DTD SVG 1.1//EN" "http://www.w3.org/Graphics/SVG/1.1/DTD/svg11.dtd"><svg t="1734867058754" class="icon" viewBox="0 0 1024 1024" version="1.1" xmlns="http://www.w3.org/2000/svg" p-id="9695" xmlns:xlink="http://www.w3.org/1999/xlink" width="200" height="200"><path d="M348.361 70.5l0 0.021C199.235 71.927 77.193 203.614 74.21 352.116l-0.811 0-1.634 600.407 601.152 1.629 0.044-0.078C821.16 951.473 947.745 829.719 950.7 682.008l0.222 0 1.656-609.864L348.361 70.5 348.361 70.5zM835.014 681.691c-2.651 88.833-70.602 153.997-159.453 156.754l-489.529-0.336 2.344-483.927 0 0c1.882-91.087 68.016-168.158 159.669-168.402l489.081 0.318-2.35 495.593L835.014 681.691 835.014 681.691zM835.014 681.691" fill="#42B49A" p-id="9696"></path><path d="M600.516 603.68c5.437 5.018 12.646 8.149 20.63 8.149 16.866 0 30.518-13.657 30.518-30.532 0-10.673-5.499-20.029-13.8-25.486l0.347-0.446c-7.813-5.101-16.009-9.645-24.433-13.795 34.648-29.109 56.724-72.732 56.724-121.542 0-87.666-71.062-158.738-158.737-158.738-87.681 0-158.742 71.072-158.742 158.738 0 48.747 22.018 94.021 56.59 123.141-71.485 35.202-122.196 100.048-128.887 191.196-0.014-0.363-0.034-0.79-0.034-0.672 0 0.291 0.014 0.573 0.02 0.857-0.005 0.091-0.015 0.177-0.02 0.268l0.029 0c0.59 16.291 14.011 28.549 30.504 28.549 16.62 0 30.125-12.055 30.506-28.549l0.1 0c9.145-91.384 81.725-154.343 169.938-154.343 32.518 0 62.8 8.381 88.685 24.153L600.516 603.68 600.516 603.68zM511.764 517.729c-53.948 0-97.685-43.752-97.685-97.691 0-53.952 43.737-97.671 97.685-97.671 53.944 0 97.672 43.727 97.672 97.671C609.436 473.976 565.708 517.729 511.764 517.729L511.764 517.729zM511.764 517.729" fill="#42B49A" p-id="9697"></path><path d="M768.485 553.576c-9.309-9.293-24.414-9.293-33.727 0L602.461 685.897c-9.324 9.301-45.102 60.193-35.788 69.516l8.443 8.426c9.3 9.333 60.188-26.46 69.506-35.788l132.302-132.282c9.318-9.318 9.318-24.442 0-33.738L768.485 553.576 768.485 553.576zM768.485 553.576" fill="#42B49A" p-id="9698"></path></svg>